<svg width="120" height="36" viewBox="0 0 120 36" fill="none" xmlns="http://www.w3.org/2000/svg">
<path d="M30.592 22.832H35.968V26H26.488V9.152H30.592V22.832ZM51.1495 12.608V26H47.0455V24.176C46.6295 24.768 46.0615 25.248 45.3415 25.616C44.6375 25.968 43.8535 26.144 42.9895 26.144C41.9655 26.144 41.0615 25.92 40.2775 25.472C39.4935 25.008 38.8855 24.344 38.4535 23.48C38.0215 22.616 37.8055 21.6 37.8055 20.432V12.608H41.8855V19.88C41.8855 20.776 42.1175 21.472 42.5815 21.968C43.0455 22.464 43.6695 22.712 44.4535 22.712C45.2535 22.712 45.8855 22.464 46.3495 21.968C46.8135 21.472 47.0455 20.776 47.0455 19.88V12.608H51.1495ZM71.1854 12.464C72.8494 12.464 74.1694 12.968 75.1454 13.976C76.1374 14.984 76.6334 16.384 76.6334 18.176V26H72.5534V18.728C72.5534 17.864 72.3214 17.2 71.8574 16.736C71.4094 16.256 70.7854 16.016 69.9854 16.016C69.1854 16.016 68.5534 16.256 68.0894 16.736C67.6414 17.2 67.4174 17.864 67.4174 18.728V26H63.3374V18.728C63.3374 17.864 63.1054 17.2 62.6414 16.736C62.1934 16.256 61.5694 16.016 60.7694 16.016C59.9694 16.016 59.3374 16.256 58.8734 16.736C58.4254 17.2 58.2014 17.864 58.2014 18.728V26H54.0974V12.608H58.2014V14.288C58.6174 13.728 59.1614 13.288 59.8334 12.968C60.5054 12.632 61.2654 12.464 62.1134 12.464C63.1214 12.464 64.0174 12.68 64.8014 13.112C65.6014 13.544 66.2254 14.16 66.6734 14.96C67.1374 14.224 67.7694 13.624 68.5694 13.16C69.3694 12.696 70.2414 12.464 71.1854 12.464ZM85.5996 26.192C84.2876 26.192 83.1036 25.912 82.0476 25.352C81.0076 24.792 80.1836 23.992 79.5756 22.952C78.9836 21.912 78.6876 20.696 78.6876 19.304C78.6876 17.928 78.9916 16.72 79.5996 15.68C80.2076 14.624 81.0396 13.816 82.0956 13.256C83.1516 12.696 84.3356 12.416 85.6476 12.416C86.9596 12.416 88.1436 12.696 89.1996 13.256C90.2556 13.816 91.0876 14.624 91.6956 15.68C92.3036 16.72 92.6076 17.928 92.6076 19.304C92.6076 20.68 92.2956 21.896 91.6716 22.952C91.0636 23.992 90.2236 24.792 89.1516 25.352C88.0956 25.912 86.9116 26.192 85.5996 26.192ZM85.5996 22.64C86.3836 22.64 87.0476 22.352 87.5916 21.776C88.1516 21.2 88.4316 20.376 88.4316 19.304C88.4316 18.232 88.1596 17.408 87.6156 16.832C87.0876 16.256 86.4316 15.968 85.6476 15.968C84.8476 15.968 84.1836 16.256 83.6556 16.832C83.1276 17.392 82.8636 18.216 82.8636 19.304C82.8636 20.376 83.1196 21.2 83.6316 21.776C84.1596 22.352 84.8156 22.64 85.5996 22.64ZM98.8889 14.84C99.3689 14.104 99.9689 13.528 100.689 13.112C101.409 12.68 102.209 12.464 103.089 12.464V16.808H101.961C100.937 16.808 100.169 17.032 99.6569 17.48C99.1449 17.912 98.8889 18.68 98.8889 19.784V26H94.7849V12.608H98.8889V14.84ZM104.235 19.28C104.235 17.904 104.491 16.696 105.003 15.656C105.531 14.616 106.243 13.816 107.139 13.256C108.035 12.696 109.035 12.416 110.139 12.416C111.083 12.416 111.907 12.608 112.611 12.992C113.331 13.376 113.883 13.88 114.267 14.504V12.608H118.371V26H114.267V24.104C113.867 24.728 113.307 25.232 112.587 25.616C111.883 26 111.059 26.192 110.115 26.192C109.027 26.192 108.035 25.912 107.139 25.352C106.243 24.776 105.531 23.968 105.003 22.928C104.491 21.872 104.235 20.656 104.235 19.28ZM114.267 19.304C114.267 18.28 113.979 17.472 113.403 16.88C112.843 16.288 112.155 15.992 111.339 15.992C110.523 15.992 109.827 16.288 109.251 16.88C108.691 17.456 108.411 18.256 108.411 19.28C108.411 20.304 108.691 21.12 109.251 21.728C109.827 22.32 110.523 22.616 111.339 22.616C112.155 22.616 112.843 22.32 113.403 21.728C113.979 21.136 114.267 20.328 114.267 19.304Z" fill="black"/>
<path d="M21.926 18.1712C20.7983 16.8787 20.1634 15.2294 20.1335 13.5143C20.1036 11.7992 20.6805 10.1287 21.7624 8.79765C20.4699 9.92538 18.8205 10.5602 17.1055 10.5902C15.3904 10.6201 13.7199 10.0432 12.3888 8.96127C13.5166 10.2538 14.1514 11.9031 14.1814 13.6182C14.2113 15.3333 13.6344 17.0038 12.5524 18.3348C13.845 17.2071 15.4943 16.5723 17.2094 16.5423C18.9244 16.5124 20.5949 17.0893 21.926 18.1712Z" fill="#06402B"/>
<path d="M16.4854 19.8289C16.2823 19.8325 16.0884 19.914 15.9347 20.0651L10.5623 25.6285C10.4187 25.7771 10.3402 25.9766 10.3438 26.1832C10.3474 26.3897 10.4329 26.5864 10.5815 26.7299C10.7301 26.8734 10.9296 26.952 11.1362 26.9484C11.3427 26.9448 11.5394 26.8593 11.6829 26.7107L17.0553 21.1473C17.162 21.0368 17.2335 20.8972 17.261 20.7461C17.2884 20.595 17.2706 20.4392 17.2096 20.2982C17.1487 20.1572 17.0474 20.0375 16.9185 19.954C16.7896 19.8705 16.6389 19.8269 16.4854 19.8289ZM5.33269 20.5784L10.7052 15.015C10.7763 14.9415 10.8323 14.8546 10.8698 14.7595C10.9074 14.6643 10.9258 14.5626 10.924 14.4603C10.9222 14.358 10.9003 14.2571 10.8594 14.1633C10.8186 14.0695 10.7596 13.9846 10.6859 13.9136C10.527 13.7601 10.3303 13.6854 10.1272 13.689C9.92415 13.6925 9.73024 13.774 9.5766 13.9252L4.20413 19.4885C3.9048 19.7985 3.91339 20.2906 4.22335 20.5899C4.53331 20.8892 5.03337 20.8883 5.33269 20.5784Z" fill="#06402B"/>
<path d="M22.3073 8.23337C22.1669 8.09748 21.9806 8.01918 21.7852 8.01391C21.5898 8.00864 21.3996 8.07679 21.252 8.20491C20.1007 9.21617 18.6279 9.78591 17.0958 9.81265C15.5637 9.83939 14.0719 9.3214 12.8861 8.35094C12.7319 8.22987 12.5386 8.16965 12.3429 8.18171C12.1472 8.19377 11.9627 8.27727 11.8245 8.41635C11.6887 8.55682 11.6104 8.74312 11.6051 8.93849C11.5998 9.13386 11.668 9.32411 11.7961 9.47169C12.8039 10.6207 13.3729 12.0891 13.4024 13.6172C13.432 15.1453 12.9201 16.6346 11.9575 17.8217L3.54571 26.5323C3.4022 26.6809 3.32361 26.8805 3.32721 27.087C3.33082 27.2936 3.41633 27.4902 3.56493 27.6337C3.71353 27.7772 3.91306 27.8558 4.11961 27.8522C4.32616 27.8486 4.52282 27.7631 4.66632 27.6145L13.086 18.9116C14.2388 17.908 15.7093 17.3445 17.2375 17.3207C18.7657 17.2969 20.2531 17.8143 21.4366 18.7814C21.5883 18.9068 21.7816 18.9703 21.9781 18.9593C22.1746 18.9482 22.3596 18.8635 22.4963 18.722C22.633 18.5804 22.7112 18.3925 22.7154 18.1958C22.7196 17.9991 22.6493 17.808 22.5188 17.6608C21.5075 16.5096 20.9378 15.0367 20.911 13.5046C20.8843 11.9726 21.4023 10.4807 22.3727 9.29489C22.6251 8.97794 22.5936 8.51748 22.3073 8.23337ZM19.8358 16.1527C18.1226 15.5888 16.2635 15.6212 14.571 16.2446C15.1349 14.5314 15.1024 12.6723 14.4791 10.9798C16.1941 11.5441 18.0496 11.5117 19.7439 10.8879C19.18 12.6011 19.2124 14.4602 19.8358 16.1527Z" fill="#06402B"/>
</svg>
